<svg xmlns="http://www.w3.org/2000/svg" viewBox="0 0 175.7 52"><defs><style>.cls-1{fill:#7d40ac;}</style></defs><g id="Layer_2" data-name="Layer 2"><g id="Layer_1-2" data-name="Layer 1"><polygon class="cls-1" points="16.05 51.98 60.02 52 30.04 0 4.54 44.11 4.54 44.11 0 51.97 8.01 51.97 12.02 45.03 12.02 45.03 12.12 44.86 12.59 44.06 12.59 44.06 23.02 26.02 23.02 26.04 30.03 13.91 47.98 45.04 20.07 45.02 16.05 51.98"/><polygon class="cls-1" points="24.38 38.21 36.78 38.21 30.58 26.86 24.38 38.21"/><path class="cls-1" d="M70.55,28.13,69.2,30.87H67.74L73.14,20h1.43L80,30.87h-1.5l-1.34-2.74Zm3.26-6.69-2.68,5.5h5.4Z"/><path class="cls-1" d="M88.44,20c3.51,0,6.19,2.34,6.19,5.42s-2.7,5.42-6.24,5.42H83.57V20ZM85,29.7h3.51c2.68,0,4.78-1.82,4.78-4.23s-2.14-4.25-4.84-4.25H85Z"/><path class="cls-1" d="M103.39,20c3,0,4.7,1.33,4.7,3.64s-1.73,3.78-4.7,3.78h-3.15v3.42H98.86V20Zm-3.15,6.23h3.1c2.16,0,3.42-.87,3.42-2.56s-1.26-2.48-3.42-2.48h-3.1Z"/><path class="cls-1" d="M118.75,29.7v1.17h-6.66V20h1.38V29.7Z"/><path class="cls-1" d="M124.09,21.22v3.56h6.07V26h-6.07V29.7h7v1.17h-8.4V20h8.17v1.19Z"/><path class="cls-1" d="M144.75,30.87H143.1l-3.67-4.54-3.63,4.54h-1.61l4.42-5.58L134.5,20h1.61l3.32,4.18L142.79,20h1.61l-4.09,5.2Z"/><path class="cls-1" d="M148.79,30.87V20h1.38V30.87Z"/><path class="cls-1" d="M159.2,21.22v9.65h-1.38V21.22H153.9V20h9.24v1.19Z"/><path class="cls-1" d="M171.12,30.87h-1.36V27.2L165.1,20h1.43l3.91,5.65L174.29,20h1.41l-4.58,7.12Z"/></g></g></svg>