<svg xmlns="http://www.w3.org/2000/svg" viewBox="0 0 202.51 52"><defs><style>.cls-1{fill:#18b9ec;}.cls-2{fill:#4c4c4c;}</style></defs><g id="Layer_2" data-name="Layer 2"><g id="Шар_2" data-name="Шар 2"><path class="cls-1" d="M65,44.48l-1.62-5.32H55.27l-1.63,5.32h-5.1L56.43,22h5.79l7.92,22.45Zm-2.76-9.3c-1.49-4.82-2.34-7.55-2.53-8.18s-.32-1.13-.4-1.5q-.51,2-2.89,9.68Z"/><path class="cls-1" d="M77.69,44.78A5.54,5.54,0,0,1,73,42.44,10.73,10.73,0,0,1,71.24,36,10.74,10.74,0,0,1,73,29.41a5.67,5.67,0,0,1,4.82-2.35,5.59,5.59,0,0,1,4.93,2.51h.15a18.6,18.6,0,0,1-.35-3.41V20.68h4.68v23.8H83.64l-.9-2.22h-.2A5.34,5.34,0,0,1,77.69,44.78Zm1.64-3.71A3.17,3.17,0,0,0,82,40a6.11,6.11,0,0,0,.91-3.54V36A7,7,0,0,0,82,32a3.17,3.17,0,0,0-2.76-1.19,2.73,2.73,0,0,0-2.42,1.32A7.06,7.06,0,0,0,76,36a6.74,6.74,0,0,0,.87,3.79A2.87,2.87,0,0,0,79.33,41.07Z"/><path class="cls-1" d="M103.71,39.4a4.72,4.72,0,0,1-1.83,4,9.08,9.08,0,0,1-5.46,1.37,17.12,17.12,0,0,1-3.19-.25,12.79,12.79,0,0,1-2.46-.74V39.94a17.6,17.6,0,0,0,2.93,1,12.13,12.13,0,0,0,2.87.41c1.69,0,2.54-.49,2.54-1.47a1.25,1.25,0,0,0-.34-.89,4.74,4.74,0,0,0-1.16-.78c-.55-.29-1.29-.63-2.2-1a13.49,13.49,0,0,1-2.9-1.53,4.18,4.18,0,0,1-1.35-1.61,5.33,5.33,0,0,1-.42-2.24,4,4,0,0,1,1.77-3.52,8.6,8.6,0,0,1,5-1.25,14.19,14.19,0,0,1,6,1.35l-1.41,3.36a24.58,24.58,0,0,0-2.4-.9,7.43,7.43,0,0,0-2.28-.35c-1.38,0-2.06.37-2.06,1.11A1.32,1.32,0,0,0,96,32.72,18.21,18.21,0,0,0,99,34.08a13.39,13.39,0,0,1,2.94,1.51,4.57,4.57,0,0,1,1.38,1.62A5.09,5.09,0,0,1,103.71,39.4Z"/><path class="cls-2" d="M107.4,22.12h7q4.76,0,6.9,1.35a4.71,4.71,0,0,1,2.15,4.31,5.43,5.43,0,0,1-.94,3.29,3.77,3.77,0,0,1-2.5,1.54v.15A4.94,4.94,0,0,1,123,34.54,5.8,5.8,0,0,1,124,38a5.7,5.7,0,0,1-2.21,4.77,9.53,9.53,0,0,1-6,1.72H107.4ZM112.14,31h2.75a5.05,5.05,0,0,0,2.8-.59,2.24,2.24,0,0,0,.86-2,2,2,0,0,0-.94-1.85,6.09,6.09,0,0,0-3-.56h-2.49Zm0,3.77v5.82h3.09a4.56,4.56,0,0,0,2.89-.75,2.76,2.76,0,0,0,.93-2.29c0-1.86-1.32-2.78-4-2.78Z"/><path class="cls-2" d="M137.3,27.06a7.63,7.63,0,0,1,1.58.14l-.35,4.37a5.49,5.49,0,0,0-1.38-.15,5,5,0,0,0-3.48,1.14,4.17,4.17,0,0,0-1.24,3.22v8.7h-4.67V27.38h3.54l.68,2.88h.23a6.48,6.48,0,0,1,2.15-2.32A5.25,5.25,0,0,1,137.3,27.06Z"/><path class="cls-2" d="M141.47,23c0-1.52.85-2.28,2.54-2.28s2.54.76,2.54,2.28a2.19,2.19,0,0,1-.64,1.69,2.66,2.66,0,0,1-1.9.61C142.32,25.26,141.47,24.49,141.47,23Zm4.86,21.52h-4.66V27.38h4.66Z"/><path class="cls-2" d="M156.33,44.78a5.57,5.57,0,0,1-4.74-2.34A10.8,10.8,0,0,1,149.87,36a10.74,10.74,0,0,1,1.76-6.55,5.66,5.66,0,0,1,4.82-2.35,5.58,5.58,0,0,1,4.92,2.51h.16a18.68,18.68,0,0,1-.36-3.41V20.68h4.68v23.8h-3.57l-.91-2.22h-.2A5.33,5.33,0,0,1,156.33,44.78ZM158,41.07a3.18,3.18,0,0,0,2.63-1,6.19,6.19,0,0,0,.91-3.54V36a7.08,7.08,0,0,0-.85-4,3.17,3.17,0,0,0-2.76-1.19,2.75,2.75,0,0,0-2.43,1.32A7.15,7.15,0,0,0,154.6,36a6.74,6.74,0,0,0,.87,3.79A2.84,2.84,0,0,0,158,41.07Z"/><path class="cls-2" d="M185.3,27.38v2.37l-2.68.69a4.65,4.65,0,0,1,.74,2.57,5.2,5.2,0,0,1-1.92,4.29,8.35,8.35,0,0,1-5.33,1.53l-.84,0-.69-.08a1.56,1.56,0,0,0-.72,1.23c0,.67.86,1,2.57,1h2.9a6.65,6.65,0,0,1,4.29,1.21,4.31,4.31,0,0,1,1.48,3.55,5.27,5.27,0,0,1-2.5,4.65Q180.1,52,175.42,52A10,10,0,0,1,170,50.75a4,4,0,0,1-1.89-3.49,3.61,3.61,0,0,1,1-2.58,5.43,5.43,0,0,1,2.83-1.49,3.15,3.15,0,0,1-1.26-1,2.47,2.47,0,0,1,0-3.1,6.58,6.58,0,0,1,1.64-1.28,4.55,4.55,0,0,1-2.13-1.87,5.6,5.6,0,0,1-.79-3,5.32,5.32,0,0,1,1.82-4.33,7.85,7.85,0,0,1,5.2-1.53,12.68,12.68,0,0,1,1.7.13c.66.09,1.08.15,1.26.19ZM172.1,46.89a1.7,1.7,0,0,0,.93,1.52,5.14,5.14,0,0,0,2.59.55,9.17,9.17,0,0,0,3.93-.69A2.1,2.1,0,0,0,181,46.39a1.33,1.33,0,0,0-.84-1.33,6.78,6.78,0,0,0-2.6-.37h-2.42a3.7,3.7,0,0,0-2.15.6A1.89,1.89,0,0,0,172.1,46.89ZM173.8,33a3.49,3.49,0,0,0,.63,2.2,2.32,2.32,0,0,0,1.94.81,2.24,2.24,0,0,0,1.92-.81,3.55,3.55,0,0,0,.62-2.2c0-2.06-.85-3.09-2.54-3.09S173.8,30.92,173.8,33Z"/><path class="cls-2" d="M195.53,44.78a8.82,8.82,0,0,1-6.45-2.28,8.61,8.61,0,0,1-2.32-6.45,9.44,9.44,0,0,1,2.15-6.64,8.72,8.72,0,0,1,11.58-.29,7.81,7.81,0,0,1,2,5.71v2.26h-11a4.52,4.52,0,0,0,1.18,3.11,4.15,4.15,0,0,0,3.09,1.11,13.07,13.07,0,0,0,2.92-.32,14.6,14.6,0,0,0,2.87-1v3.6a10.35,10.35,0,0,1-2.61.91A16.43,16.43,0,0,1,195.53,44.78Zm-.65-14.4a3,3,0,0,0-2.33.94,4.36,4.36,0,0,0-1,2.67h6.54a3.9,3.9,0,0,0-.9-2.67A3,3,0,0,0,194.88,30.38Z"/><path class="cls-1" d="M.3,21.57v2A17.06,17.06,0,0,1,0,21.51Z"/><path class="cls-1" d="M.75,19.33a.33.33,0,0,1-.08-.19A.15.15,0,0,1,.87,19a.27.27,0,0,1,.19.26.15.15,0,0,1-.08.14c.16.25.31.51.46.76v.27l3,.72v-.25l.45-.46a.28.28,0,0,1-.07-.17A.14.14,0,0,1,5,20.13a.25.25,0,0,1,.19.23.14.14,0,0,1-.07.13l.45.68v2.72a14.75,14.75,0,0,0,2.15,3.66,12.44,12.44,0,0,0,2,2,7.66,7.66,0,0,1-.6.49L9,30.16a12.88,12.88,0,0,1-2-2,14.81,14.81,0,0,1-2.84-5.68.69.69,0,0,0-.3-.14L2.17,22h0l-.62-.12a17.62,17.62,0,0,0,1.81,6c.85,1.59,2.28,3.47,4.32,3.47h.05c.6.07,2.07-.38,5-4.13A88.77,88.77,0,0,0,21.1,13.62c1-1.94,1.82-3.72,2.45-5.24v2.26c-.79,1.72-1.75,3.65-2.81,5.62a87.66,87.66,0,0,1-6.83,10.88,24.31,24.31,0,0,1-3.32,3.7,4.52,4.52,0,0,1-2.75,1.37H7.65A4.61,4.61,0,0,1,4.7,31a9.28,9.28,0,0,1-2.14-2.78A18.75,18.75,0,0,1,.62,21.64L.3,21.57v-1.7Z"/><path class="cls-1" d="M3.89,25.91l-.76-.08c-.18-.49-.34-1-.48-1.52l1.24.18a.61.61,0,0,0,.3,0,15.49,15.49,0,0,0,1.4,2.71v2.66A7.83,7.83,0,0,1,4.17,28a.53.53,0,0,0,.28-.45V26.49A.61.61,0,0,0,3.89,25.91Z"/><path class="cls-1" d="M18,29.25C16,31,14.4,31.88,13.28,31.88h-.2a5.36,5.36,0,0,1-2.17-.51L11,31.3l.66-.61A4.32,4.32,0,0,0,13.1,31h.05c.52.06,1.57-.22,3.61-1.84A47.27,47.27,0,0,0,22.11,24c.47-.51.95-1.05,1.44-1.6v1.37A59.45,59.45,0,0,1,18,29.25Z"/><path class="cls-1" d="M36.74,44,34,42.67v1.44c-1-.33-1.92-.67-2.89-1L32.58,42l-.69-.32-1.48,1.15c-1-.37-1.92-.75-2.87-1.15l3.12-.57-1.18-.55-1.93.34,1-.77-.75-.34c-.36.27-.75.55-1.09.82V38.41l14.47,6.71,1.37-3.76-15.84-5.5v-7.6a2.61,2.61,0,0,1,2.53-2.63l2.29,0A2.47,2.47,0,0,1,34,28v8.19l9.68,2.06.55-1.54-7.52-1.59V22.77Q35.39,21.17,34,19.45v1.46a1.28,1.28,0,0,1-1.33,1.25L28.08,22a1.47,1.47,0,0,1-1.37-1.46V17.67a1.27,1.27,0,0,1,1.38-1.28l3.94.38c-.94-1.28-1.81-2.58-2.6-3.84l-1.35-.18a1.67,1.67,0,0,1-1.37-1.61V8.28a1.21,1.21,0,0,1,.38-.87,37.73,37.73,0,0,0,2.05,3.89A75.21,75.21,0,0,0,39.83,25.09a39.29,39.29,0,0,0,5.93,5.07c.26.18.53.35.79.5l.32-.86-.61-.39a39.59,39.59,0,0,1-5.78-4.95A74.86,74.86,0,0,1,29.93,10.84,36.89,36.89,0,0,1,28,7.12l.13,0,4.59.93A1.81,1.81,0,0,1,34,9.64v2.64a1.13,1.13,0,0,1-1.33,1.11l-.56-.07a71.84,71.84,0,0,0,4.6,6.2V8.23c.45.79.9,1.53,1.28,2.14a51.11,51.11,0,0,0,6.47,8.41,16.59,16.59,0,0,0,5,3.83l.32-.84a15.39,15.39,0,0,1-4.65-3.62A50.36,50.36,0,0,1,38.79,9.9a32.61,32.61,0,0,1-2-3.72V5.33c-.34-.56-.69-1.12-1.06-1.67a.34.34,0,0,0,.22-.31.64.64,0,0,0-.46-.57A.33.33,0,0,0,35,3.1a.55.55,0,0,0,.18.41c-.38.37-.79.75-1.13,1.13v.6c-2.47-.59-5-1.17-7.32-1.76V2.83A20.63,20.63,0,0,1,25.62,1a.37.37,0,0,0,.2-.35A.67.67,0,0,0,25.36,0a.36.36,0,0,0-.47.37A.62.62,0,0,0,25,.84c-.37.43-.81.87-1.15,1.31V34.7c-.45-.11-.86-.22-1.44-.35-1.79-.38-4-.73-6.46-1a90.18,90.18,0,0,0-10.46-.63v-.38A4,4,0,0,1,4.4,31.6v1.13c-1.13,0-2.14.08-3,.16V30.6a1.1,1.1,0,0,1,1.07-1.08h.16c-.2-.31-.38-.64-.57-1s-.24-.39-.33-.59a.65.65,0,0,1-.33-.52v-.14A20.82,20.82,0,0,1,.23,23.57v14.9L0,38.52v1.32l1.57-.42V38.26c.79-.21,1.69-.42,2.6-.63v1.08c.45-.15,1-.29,1.57-.43V37.15l-.22.05V34.37A89.83,89.83,0,0,1,15.81,35c2.35.27,4.57.62,6.28,1,.8.17,1.35.32,1.8.45v11a2.74,2.74,0,0,0-.45.12v3.23l3.72-1V46.88l6.31-1.53V48c1.24-.34,2.48-.68,3.83-1V44.19l-.56.12ZM3.07,34.44l-.13.1-.17-.08Zm-1.3,1.35,1.17-.89,1.18.48Zm2.35-.11-1.18.9-1.18-.47ZM1.36,34.56,2,34.51l.54.25c-.4.3-.87.6-1.21.91Zm0,3.24V36.35c.34.16.79.32,1.19.48C2.15,37.15,1.7,37.47,1.36,37.8Zm.4.11,1.18-1,1.18.42Zm2.64-.79C4,37,3.6,36.84,3.21,36.7c.39-.31.74-.62,1.19-.92Zm0-2c-.45-.16-.77-.32-1.17-.49l.33-.25.84,0ZM26.71,45.78V42.24c.9.4,1.93.79,2.91,1.16C28.64,44.18,27.61,45,26.71,45.78Zm.83.25c.95-.79,1.9-1.58,2.87-2.35.95.35,1.91.69,2.87,1Z"/></g></g></svg>