<?xml version="1.0" encoding="utf-8"?>
<!-- Generator: Adobe Illustrator 24.0.0, SVG Export Plug-In . SVG Version: 6.00 Build 0)  -->
<svg version="1.1" xmlns="http://www.w3.org/2000/svg" xmlns:xlink="http://www.w3.org/1999/xlink" x="0px" y="0px"
	 viewBox="0 0 850.4 206.2" style="enable-background:new 0 0 850.4 206.2;" xml:space="preserve">
<style type="text/css">
	.st0{fill:#231F20;}
	.st1{fill:#00FFAA;}
	.st2{display:none;}
	.st3{display:inline;fill:#00FFAA;}
</style>
<g id="Camada_2">
	<rect x="39.1" y="40.8" class="st0" width="783.2" height="130.3"/>
</g>
<g id="Layer_1">
	<g>
		<path class="st1" d="M347.9,84.1c1.4-1.4,2.1-4.2,2.1-6.6c0-2.4-0.7-4.4-1.9-5.9c-1.3-1.5-3.4-2.3-6.4-2.3h-13.5v17h13.2
			C344.3,86.2,346.5,85.5,347.9,84.1"/>
		<path class="st1" d="M256.5,78.3c-2.3-2.5-5.1-4.5-8.4-6c-3.3-1.4-7.1-2.2-11.4-2.2c-4.3,0-8.1,0.7-11.4,2.2
			c-3.3,1.4-6.1,3.4-8.4,6c-2.3,2.6-4,5.6-5.2,9.1c-1.2,3.5-1.8,7.3-1.8,11.2c0,4,0.6,7.7,1.8,11.2c1.2,3.5,3,6.5,5.2,9.1
			c2.3,2.6,5.1,4.6,8.4,6.1c3.3,1.5,7.1,2.2,11.4,2.2c4.3,0,8.1-0.8,11.4-2.2c3.3-1.5,6.1-3.5,8.4-6.1c2.3-2.6,4-5.6,5.3-9.1
			c1.2-3.5,1.8-7.2,1.8-11.2c0-4-0.6-7.7-1.8-11.2C260.6,83.9,258.8,80.8,256.5,78.3"/>
		<path class="st1" d="M495.4,89.9c-0.6,2.1-1.6,3.9-2.9,5.4c-1.4,1.5-3.1,2.7-5.2,3.6c-2.1,0.9-4.7,1.3-7.8,1.3h-13.5V70.6h13.5
			c3.1,0,5.7,0.4,7.8,1.3c2.1,0.9,3.8,2,5.2,3.6c1.4,1.5,2.3,3.3,2.9,5.4C496,82.8,496,87.8,495.4,89.9"/>
		<path class="st1" d="M344.6,107.9h-16.5v20h16.5c5.3,0,8.6-1.3,10.9-3.1c1.7-1.4,2.9-3.4,2.9-6.3c0-2.8-1-5.5-3-7.5
			C353.4,108.9,349.8,107.9,344.6,107.9"/>
		<path class="st1" d="M0,0v206.2l850.4-0.5V0.1L0,0z M141.1,149.5l0-43.4l-27.9,29.5c-0.5,0.5-1,0.5-1.3,0L83,105.9l0,43.6H56.3
			L55.1,46.6c0.1-1,0.5-1.1,1.3-0.2l56,54.8l55.3-54.8c0.8-0.9,1.2-0.8,1.3,0.2l1.2,102.9H141.1z M287,119.7
			c-2.9,6.4-6.9,11.9-11.9,16.5c-5,4.6-10.8,8.2-17.4,10.8c-6.6,2.6-13.6,3.8-20.9,3.8c-7.4,0-14.4-1.3-21-3.8
			c-6.6-2.6-12.4-6.1-17.4-10.8c-5-4.6-9-10.2-11.9-16.5c-3-6.4-4.4-13.4-4.4-21.1c0-7.7,1.5-14.7,4.4-21.1
			c2.9-6.4,6.9-11.9,11.9-16.5c5-4.6,10.8-8.1,17.4-10.7c6.6-2.5,13.6-3.8,21-3.8c7.3,0,14.3,1.3,20.9,3.8
			c6.6,2.6,12.5,6.1,17.4,10.7c5,4.6,9,10.1,11.9,16.5c2.9,6.4,4.4,13.4,4.4,21.1C291.4,106.3,290,113.3,287,119.7 M375,141.6
			c-7.1,5.3-17,7.9-29.8,7.9h-43.4V47.7h41.6c5.1,0,9.7,0.6,13.8,1.7c4.1,1.2,7.5,2.9,10.5,4.9c9.2,6.1,9.1,17.8,9.1,21.7
			c0.1,5-1.9,10.3-3.4,12.6c-2,3.1-5,5.2-8.3,6.8c2.8,0.8,5.4,1.9,7.9,3.3c2.4,1.4,4.6,3.2,6.5,5.4c1.9,2.2,6.3,7.9,6.1,16.1
			C385.5,129.9,382.1,136.3,375,141.6 M422.8,149.5h-27.3V47.7h27.3V149.5z M517.3,100c-1.9,4.8-4.7,7.8-8.3,11.3
			c-3.6,3.6-8.1,6.3-13.4,8.4c-5.3,2-11.4,3.1-18.3,3.1h-11.4v26.7h-27.3V47.7h38.6c6.9,0,13,1,18.3,3.1c5.3,2,9.8,4.9,13.4,8.5
			c3.6,3.6,6.4,7.8,8.3,12.7c1.9,4.8,2.8,8.4,2.8,14.1C520.1,91.6,519.2,95.2,517.3,100 M558.2,149.5h-27.3V47.7h27.3V149.5z
			 M661.4,110.1c0,6.9-1.1,12.9-3.3,18c-2.2,5.1-5.3,9.3-9.2,12.7c-3.9,3.4-8.6,5.9-14,7.7c-5.4,1.7-11.3,2.5-17.7,2.5
			c-6.4,0-12.3-0.8-17.7-2.5c-5.4-1.7-10.1-4.2-14-7.7c-3.9-3.4-7-7.6-9.2-12.7c-2.2-5.1-3.3-11.1-3.3-18V47.7h27.3V110
			c0,5.8,1.4,10.3,4.1,13.4c2.7,3.2,7,4.7,12.8,4.7c5.8,0,10.1-1.6,12.8-4.7c2.7-3.2,4.1-7.6,4.1-13.4V47.7h27.3V110.1z
			 M763.3,149.5v-43.4l-27.9,29.5c-0.5,0.5-1,0.5-1.3,0l-28.9-29.7l0,43.6h-26.7l-1.2-102.9c0.1-1,0.5-1.1,1.3-0.2l56,54.8
			l55.3-54.8c0.8-0.9,1.2-0.8,1.3,0.2l1.2,102.9H763.3z"/>
	</g>
	<g class="st2">
		<path class="st3" d="M149.3,169c0-0.2,0.1-0.2,0.3-0.1l11.9,11.5l11.8-11.5c0.1-0.1,0.3-0.1,0.3,0.1v23.7h-6.2V182l-5.8,5.8
			c-0.1,0.1-0.2,0.1-0.3,0l-5.7-5.8v10.7h-6.2V169z"/>
		<path class="st3" d="M176.6,181.1c0-7,5.8-11.9,12.5-11.9c6.7,0,12.5,4.9,12.5,11.9c0,7-5.8,11.9-12.5,11.9
			C182.4,193,176.6,188.1,176.6,181.1z M195.2,181.1c0-3.7-2.2-6.5-6.1-6.5c-3.9,0-6.1,2.8-6.1,6.5c0,3.7,2.2,6.5,6.1,6.5
			C193,187.6,195.2,184.7,195.2,181.1z"/>
		<path class="st3" d="M204.4,169.4h9.5c4.6,0,7.6,2.1,7.6,5.7c0,2.6-1.2,3.8-2.7,4.5c2.5,0.7,4.7,2.5,4.7,6.1c0,4.4-3.5,7-9.2,7
			h-9.9V169.4z M213.5,178c1.4,0,2-0.7,2-1.8c0-1.1-0.5-1.9-1.9-1.9h-3.1v3.7H213.5z M214.2,187.8c2.4,0,3.1-1,3.1-2.6
			c0-1.6-0.8-2.6-3.1-2.6h-3.8v5.2H214.2z"/>
		<path class="st3" d="M226.4,169.4h6.2v23.3h-6.2V169.4z"/>
		<path class="st3" d="M236.8,169.4h6.2v18h9.9v5.2h-16.1V169.4z"/>
		<path class="st3" d="M255.8,169.4h16.3v5.2H262v5.4h8.4v5H262v2.4h10.6v5.2h-16.8V169.4z"/>
		<path class="st3" d="M290,192.7h-6.2v-23.3h8.8c6.3,0,9.8,4,9.8,9.1c0,5.2-3.5,9.1-9.8,9.1H290V192.7z M292.3,182.4
			c2.8,0,3.8-1.6,3.8-3.8c0-2.3-1-3.9-3.8-3.9H290v7.7H292.3z"/>
		<path class="st3" d="M305.3,169.4h16.3v5.2h-10.1v5.4h8.4v5h-8.4v2.4h10.6v5.2h-16.8V169.4z"/>
		<path class="st3" d="M343.6,192.7h-6.7l-3.2-5.3h-2.3v5.3h-6.2v-23.3h8.8c6.3,0,9.8,4,9.8,9.1c0,3.4-1.5,6-4.2,7.5L343.6,192.7z
			 M333.6,182.4c2.8,0,3.8-1.6,3.8-3.8c0-2.3-1-3.9-3.8-3.9h-2.3v7.7H333.6z"/>
		<path class="st3" d="M346.6,169.4h15.8v5.2h-9.6v5.4h8.4v5.2h-8.4v7.4h-6.2V169.4z"/>
		<path class="st3" d="M364,181.1c0-7,5.8-11.9,12.5-11.9c6.7,0,12.5,4.9,12.5,11.9c0,7-5.8,11.9-12.5,11.9
			C369.8,193,364,188.1,364,181.1z M382.6,181.1c0-3.7-2.2-6.5-6.1-6.5c-3.9,0-6.1,2.8-6.1,6.5c0,3.7,2.2,6.5,6.1,6.5
			C380.4,187.6,382.6,184.7,382.6,181.1z"/>
		<path class="st3" d="M410.4,192.7h-6.7l-3.2-5.3h-2.3v5.3h-6.2v-23.3h8.8c6.3,0,9.8,4,9.8,9.1c0,3.4-1.5,6-4.2,7.5L410.4,192.7z
			 M400.4,182.4c2.8,0,3.8-1.6,3.8-3.8c0-2.3-1-3.9-3.8-3.9h-2.3v7.7H400.4z"/>
		<path class="st3" d="M413.4,169c0-0.2,0.1-0.2,0.3-0.1l11.9,11.5l11.8-11.5c0.1-0.1,0.3-0.1,0.3,0.1v23.7h-6.2V182l-5.8,5.8
			c-0.1,0.1-0.2,0.1-0.3,0l-5.7-5.8v10.7h-6.2V169z"/>
		<path class="st3" d="M446,192.7h-6.1l11.3-23.7c0.1-0.2,0.3-0.2,0.4,0l11.3,23.7h-6.4l-0.9-2c0,0-8.8,0-8.8,0L446,192.7z
			 M451.1,180.7l-2.3,5.4h4.7L451.1,180.7z"/>
		<path class="st3" d="M470.9,181.1v11.6H465v-23.6c0-0.2,0.1-0.4,0.5-0.1l14.6,12v-11.7h5.8V193c0,0.3-0.1,0.4-0.5,0.1L470.9,181.1
			z"/>
		<path class="st3" d="M501,193c-6.5,0-12.1-4.9-12.1-11.9c0-7,5.5-11.9,11.8-11.9c5,0,8.1,2.1,10.1,5l-4.7,3.2
			c-0.9-1.4-2.3-2.8-5.3-2.8c-3.4,0-5.5,2.8-5.5,6.5c0,3.7,2.2,6.5,5.7,6.5c3,0,4.5-1.4,5.5-3.2l4.8,3.1
			C508.9,191.3,505.7,193,501,193z"/>
		<path class="st3" d="M513.6,169.4h16.3v5.2h-10.1v5.4h8.4v5h-8.4v2.4h10.6v5.2h-16.8V169.4z"/>
		<path class="st3" d="M547.5,181.1v11.6h-5.8v-23.6c0-0.2,0.1-0.4,0.5-0.1l14.6,12v-11.7h5.8V193c0,0.3-0.1,0.4-0.5,0.1
			L547.5,181.1z"/>
		<path class="st3" d="M566.6,169.4h16.3v5.2h-10.1v5.4h8.4v5h-8.4v2.4h10.6v5.2h-16.8V169.4z"/>
		<path class="st3" d="M591.3,174.7h-6.2v-5.2h18.5v5.2h-6.2v18h-6.2V174.7z"/>
		<path class="st3" d="M615.1,193c-0.1,0.2-0.3,0.2-0.4,0l-9.7-23.5h6.5l4.3,10.9l5-11.4c0.1-0.2,0.2-0.2,0.3,0l5.2,11.4l4.1-10.9
			h6.2l-9.6,23.5c-0.1,0.3-0.3,0.3-0.4,0l-5.8-12.5L615.1,193z"/>
		<path class="st3" d="M635.8,181.1c0-7,5.8-11.9,12.5-11.9c6.7,0,12.5,4.9,12.5,11.9c0,7-5.8,11.9-12.5,11.9
			C641.6,193,635.8,188.1,635.8,181.1z M654.4,181.1c0-3.7-2.2-6.5-6.1-6.5c-3.9,0-6.1,2.8-6.1,6.5c0,3.7,2.2,6.5,6.1,6.5
			C652.2,187.6,654.4,184.7,654.4,181.1z"/>
		<path class="st3" d="M682.2,192.7h-6.7l-3.2-5.3h-2.3v5.3h-6.2v-23.3h8.8c6.3,0,9.8,4,9.8,9.1c0,3.4-1.5,6-4.2,7.5L682.2,192.7z
			 M672.2,182.4c2.8,0,3.8-1.6,3.8-3.8c0-2.3-1-3.9-3.8-3.9h-2.3v7.7H672.2z"/>
		<path class="st3" d="M698.6,169.4h6.9c0,0-9.2,13.1-9.2,13.1l9.6,10.2h-8.1l-6.4-7v7h-6.2v-23.3h6.2v10.6L698.6,169.4z"/>
	</g>
</g>
</svg>
