<?xml version="1.0" encoding="UTF-8"?>
<svg width="98px" height="40px" viewBox="0 0 98 40" version="1.1" xmlns="http://www.w3.org/2000/svg" xmlns:xlink="http://www.w3.org/1999/xlink">
    <defs>
        <path d="M49.83,13.72 C49.5626009,14.0414348 49.236891,14.3094668 48.87,14.51 C48.4168782,14.7625565 47.9279411,14.9446434 47.42,15.05 C46.7624014,15.187036 46.0916391,15.2507584 45.42,15.24 L44.55,15.24 L44.55,18.14 L42.4,18.14 L42.4,6.53 L45.4,6.53 C46.0719129,6.5246856 46.7424447,6.59173878 47.4,6.73 C47.9134652,6.84316083 48.4083596,7.0283254 48.87,7.28 C49.2541525,7.48470519 49.5940105,7.76338877 49.87,8.1 C50.1065396,8.38449141 50.2956355,8.70527903 50.43,9.05 C50.5577807,9.37062041 50.6418675,9.70696755 50.68,10.05 C50.7184794,10.3417804 50.7385192,10.635697 50.74,10.93 C50.7399631,11.221405 50.7165547,11.5123378 50.67,11.8 C50.6306869,12.1449928 50.5396673,12.4821028 50.4,12.8 C50.2575822,13.1337086 50.0653988,13.4438992 49.83,13.72 Z M44.51,7.85 L44.5,14.03 L45.15,14.03 C45.6293677,14.0357437 46.107227,13.97517 46.57,13.85 C46.9376099,13.7474055 47.2787216,13.5666163 47.57,13.32 C47.8580258,13.0625415 48.0808027,12.7403718 48.22,12.38 C48.3829469,11.9178151 48.4608703,11.4299473 48.45,10.94 C48.4561667,10.5565491 48.4158734,10.1737625 48.33,9.8 C48.2660106,9.5165972 48.154429,9.24609648 48,9 C47.884094,8.7797268 47.7280889,8.58302469 47.54,8.42 C47.3375424,8.2754399 47.1152413,8.16092116 46.88,8.08 C46.6251765,7.98738143 46.359794,7.92691452 46.09,7.9 C45.7910399,7.86810812 45.490653,7.85141996 45.19,7.85 L44.51,7.85 Z M54.69,13.94 L54.69,18.14 L52.54,18.14 L52.54,6.6 L56.31,6.6 C56.8779195,6.59325685 57.4448016,6.65028048 58,6.77 C58.4171759,6.86472727 58.8204701,7.0126018 59.2,7.21 C59.5205885,7.38559035 59.8054909,7.61961734 60.04,7.9 C60.2427186,8.14236412 60.4109764,8.41157654 60.54,8.7 C60.6488003,8.95982464 60.7260193,9.23176981 60.77,9.51 C60.8083109,9.75483891 60.8283662,10.0021873 60.83,10.25 C60.8257626,10.5879089 60.7787212,10.9239188 60.69,11.25 C60.5841581,11.6338501 60.4115196,11.9960524 60.18,12.32 C59.9068395,12.6862397 59.5676942,12.9982534 59.18,13.24 C58.8152308,13.4673423 58.4170581,13.6360596 58,13.74 L61.24,18.14 L58.6,18.14 L55.49,13.94 L54.69,13.94 Z M54.69,7.85 L54.69,12.66 L55.35,12.66 C55.8136988,12.6631526 56.2763819,12.6162137 56.73,12.52 C57.0865668,12.4434539 57.4257097,12.3010139 57.73,12.1 C57.997556,11.9141671 58.2086378,11.6581007 58.34,11.36 C58.4971761,11.0046071 58.5723667,10.6184012 58.56,10.23 C58.5773427,9.80472654 58.4879597,9.38187621 58.3,9 C58.121359,8.7336248 57.8812749,8.51411936 57.6,8.36 C57.2938106,8.17493066 56.9538927,8.05256024 56.6,8 C56.1950641,7.91479601 55.7835448,7.86461072 55.37,7.85 L54.69,7.85 Z M73.55,9.3 C73.8643552,9.74004165 74.1167181,10.2212136 74.3,10.73 C74.4493048,11.2466857 74.5233991,11.7821854 74.52,12.32 C74.5233857,12.8643839 74.4493103,13.4064814 74.3,13.93 C74.1557163,14.4345217 73.9473515,14.9184659 73.68,15.37 C73.3997943,15.8174586 73.0637592,16.2274213 72.68,16.59 C72.3068974,16.9531364 71.8904183,17.2688545 71.44,17.53 C70.9799026,17.7918517 70.4896264,17.9966931 69.98,18.14 C68.9113757,18.4200429 67.7886243,18.4200429 66.72,18.14 C66.207188,17.9967073 65.7136002,17.7918851 65.25,17.53 C64.7947856,17.2715086 64.374678,16.9555877 64,16.59 C63.6191626,16.2247086 63.2834391,15.8151261 63,15.37 C62.682411,14.9267638 62.4267238,14.442304 62.24,13.93 C62.0955457,13.405474 62.0215625,12.8640516 62.02,12.32 C62.0217883,11.7825387 62.0957836,11.2477543 62.24,10.73 C62.3877522,10.2251051 62.5994697,9.74117948 62.87,9.29 C63.1509838,8.84611767 63.4869836,8.43955789 63.87,8.08 C64.244678,7.71441232 64.6647856,7.39849145 65.12,7.14 C65.583943,6.88130995 66.0775464,6.67983915 66.59,6.54 C67.1213389,6.39552454 67.6693714,6.32155697 68.22,6.32 C68.7709571,6.31660405 69.3196573,6.39066173 69.85,6.54 C70.3607442,6.67549124 70.8515736,6.87720197 71.31,7.14 C71.7604183,7.4011455 72.1768974,7.71686356 72.55,8.08 C72.938456,8.43817468 73.2750344,8.84880039 73.55,9.3 Z M72.15,12.3 L72.15,12.32 C72.1544702,11.6709311 72.0669332,11.0245039 71.89,10.4 C71.7354079,9.85962042 71.4847387,9.35150722 71.15,8.9 C70.8270811,8.47983631 70.4134641,8.13800404 69.94,7.9 C69.4155253,7.65125236 68.8403491,7.52800033 68.26,7.54 C67.6794391,7.52575981 67.1037498,7.64912179 66.58,7.9 C66.1047886,8.13531784 65.6906099,8.47761429 65.37,8.9 C65.0333512,9.35033845 64.7825023,9.85881593 64.63,10.4 C64.4583084,11.018543 64.3741565,11.6580971 64.38,12.3 C64.3734842,12.9452322 64.4576397,13.5881809 64.63,14.21 C64.7814941,14.756527 65.0360623,15.2690576 65.38,15.72 C65.7013943,16.1416324 66.1153807,16.4837699 66.59,16.72 C67.108459,16.9768395 67.6815751,17.1038174 68.26,17.09 C68.8353382,17.1050264 69.405504,16.9779413 69.92,16.72 C70.3959606,16.4815227 70.812744,16.139897 71.14,15.72 C71.4801157,15.2666916 71.7343113,14.7549112 71.89,14.21 C72.0657386,13.588662 72.1532616,12.9457045 72.15,12.3 Z M83.42,10.66 L83.42,11.92 L78.47,11.92 L78.47,18.14 L76.32,18.14 L76.32,6.6 L83.58,6.6 L83.58,7.85 L78.47,7.85 L78.47,10.66 L83.42,10.66 Z M85.65,6.6 L87.81,6.6 L87.81,18.14 L85.65,18.14 L85.65,6.6 Z M92.22,18.14 L92.22,7.85 L89.54,7.85 L89.54,6.6 L97.04,6.6 L97.04,7.85 L94.37,7.85 L94.37,18.14 L92.22,18.14 Z M47.83,28.76 C48.028122,29.0343101 48.1957773,29.3293834 48.33,29.64 C48.457007,29.9303724 48.5249926,30.2431059 48.53,30.56 C48.5454602,31.0580813 48.4390439,31.5524022 48.22,32 C48.025713,32.3909945 47.7453615,32.7328866 47.4,33 C47.068814,33.2379125 46.6955727,33.4109608 46.3,33.51 C45.8988233,33.6172074 45.4852532,33.6710051 45.07,33.67 C44.7356964,33.6725203 44.4016039,33.6524747 44.07,33.61 C43.7755388,33.579203 43.4843949,33.5223128 43.2,33.44 C42.9250493,33.3722746 42.6571733,33.278518 42.4,33.16 C42.1444823,33.0513658 41.8971686,32.9243668 41.66,32.78 L41.51,32.7 L41.67,31.37 L42,31.52 L42.61,31.79 L43.2,32.02 C43.3992154,32.0905215 43.6030253,32.147321 43.81,32.19 C44.0075271,32.2297697 44.2085091,32.2498679 44.41,32.25 C44.9331027,32.2895736 45.4543302,32.1522231 45.89,31.86 C46.2096305,31.587417 46.3804341,31.1789736 46.35,30.76 C46.3476467,30.6143886 46.3135181,30.4710483 46.25,30.34 C46.1777818,30.1623575 46.0837249,29.9943987 45.97,29.84 C45.8270493,29.6418502 45.6734919,29.4515726 45.51,29.27 C45.34,29.07 45.14,28.86 44.94,28.64 L43.62,27.19 C43.27,26.77 42.99,26.43 42.77,26.13 C42.5611274,25.8772966 42.3706392,25.6099447 42.2,25.33 C42.069239,25.1133325 41.9651506,24.8816518 41.89,24.64 C41.8260538,24.4223193 41.7924041,24.1968661 41.79,23.97 C41.7575473,23.2163099 42.1416631,22.5056957 42.79,22.12 C43.0971926,21.9350716 43.4364202,21.8095575 43.79,21.75 C44.1454818,21.6777429 44.50725,21.6408962 44.87,21.64 C45.1673772,21.6396873 45.464529,21.6563812 45.76,21.69 C45.9994895,21.7161718 46.2367743,21.7596183 46.47,21.82 C46.69,21.87 46.92,21.93 47.13,22 L47.8,22.23 L48,22.29 L48.02,23.62 L47.69,23.51 L47.13,23.33 C46.9395519,23.2694425 46.7459283,23.2193674 46.55,23.18 L45.9,23.07 C45.67,23.07 45.43,23.07 45.17,23.07 C45.0449461,23.069449 44.9204222,23.0862766 44.8,23.12 C44.6635495,23.1560104 44.5324259,23.2098047 44.41,23.28 C44.2932462,23.3617112 44.1917112,23.4632462 44.11,23.58 C44.0338057,23.7065505 43.9956209,23.852347 44,24 C44.0088243,24.2133421 44.0744135,24.420466 44.19,24.6 C44.4233687,24.9614083 44.6949303,25.2966695 45,25.6 L46.29,27.01 C46.58,27.3 46.86,27.6 47.12,27.89 C47.375009,28.1645348 47.6121617,28.4551304 47.83,28.76 Z M61.05,24.57 C61.3580963,25.009217 61.6006376,25.490931 61.77,26 C62.0632399,27.0465128 62.0632399,28.1534872 61.77,29.2 C61.6318797,29.7066981 61.4231681,30.1914475 61.15,30.64 C60.8783011,31.0935075 60.5413602,31.5045755 60.15,31.86 C59.7792205,32.2258285 59.3623828,32.5418184 58.91,32.8 C58.4519317,33.0659602 57.9611233,33.271024 57.45,33.41 C55.3166886,33.9994513 53.0308902,33.4089534 51.45,31.86 C51.0644277,31.499115 50.7281892,31.0889039 50.45,30.64 C49.6146261,29.2442019 49.3904051,27.5661603 49.83,26 C49.9429362,25.5006345 50.1246719,25.0193714 50.37,24.57 C50.6534391,24.1248739 50.9891626,23.7152914 51.37,23.35 C51.7462458,22.9890764 52.1661744,22.6766496 52.62,22.42 C53.0844337,22.1598277 53.5778121,21.9550924 54.09,21.81 C55.1586243,21.5299571 56.2813757,21.5299571 57.35,21.81 C57.8607442,21.9454912 58.3515736,22.147202 58.81,22.41 C59.2604183,22.6711455 59.6768974,22.9868636 60.05,23.35 C60.4367957,23.7097376 60.7731761,24.1201216 61.05,24.57 Z M59.65,27.57 L59.65,27.59 C59.6552934,26.9441646 59.5677314,26.3009211 59.39,25.68 C59.2461122,25.1324985 58.9945453,24.619166 58.65,24.17 C58.3265855,23.750315 57.9130873,23.4085809 57.44,23.17 C56.3714286,22.69 55.1485714,22.69 54.08,23.17 C53.6087368,23.4113625 53.1958027,23.7526304 52.87,24.17 C52.5332317,24.6239447 52.2824294,25.135717 52.13,25.68 C51.9625545,26.2959919 51.8784718,26.931657 51.88,27.57 C51.8767384,28.2157045 51.9642614,28.858662 52.14,29.48 C52.2943985,30.0266087 52.5449834,30.5413238 52.88,31 C53.2013943,31.4216324 53.6153807,31.7637699 54.09,32 C55.1514994,32.4804517 56.3685006,32.4804517 57.43,32 C57.9029005,31.7611333 58.3163401,31.4194477 58.64,31 C58.9819934,30.5441637 59.2363098,30.0287491 59.39,29.48 C59.5657386,28.858662 59.6532616,28.2157045 59.65,27.57 Z M73.05,30.93 L73.3,30.67 L74.06,31.67 L73.89,31.84 C73.2761904,32.4165949 72.5607565,32.8743369 71.78,33.19 C70.945438,33.5162151 70.0560055,33.6791645 69.16,33.67 C68.6064817,33.6723498 68.0550675,33.6017419 67.52,33.46 C67.0024877,33.3211567 66.505049,33.1161313 66.04,32.85 C65.5895817,32.5888545 65.1731026,32.2731364 64.8,31.91 C64.0509872,31.1837411 63.5061038,30.2733029 63.22,29.27 C63.0706952,28.7533143 62.9966009,28.2178146 63,27.68 C62.992509,27.1189296 63.0666171,26.5597498 63.22,26.02 C63.3581203,25.5133019 63.5668319,25.0285525 63.84,24.58 C64.1116989,24.1264925 64.4486398,23.7154245 64.84,23.36 C65.2107795,22.9941715 65.6276172,22.6781816 66.08,22.42 C66.5423849,22.1556312 67.0362878,21.9506783 67.55,21.81 C68.0881665,21.6655945 68.6427986,21.5916436 69.2,21.59 C70.0466417,21.5834937 70.8872705,21.7326375 71.68,22.03 C72.4121553,22.3090522 73.0892339,22.7152993 73.68,23.23 L73.87,23.4 L73.14,24.4 L72.93,24.22 C72.4602021,23.8326389 71.9341773,23.5190472 71.37,23.29 C71.074839,23.1744536 70.7704163,23.0841304 70.46,23.02 C70.1319686,22.9452213 69.7964426,22.9083135 69.46,22.91 C68.8401969,22.90059 68.2258376,23.0268749 67.66,23.28 C67.1514944,23.511669 66.700677,23.8531973 66.34,24.28 C65.9720827,24.7221629 65.6935883,25.2316039 65.52,25.78 C65.3273683,26.3878086 65.2328493,27.0224366 65.24,27.66 C65.2338507,28.2843947 65.3283968,28.905698 65.52,29.5 C65.6884255,30.0485294 65.9637108,30.5583169 66.33,31 C66.6898027,31.4235238 67.1365991,31.7645898 67.64,32 C68.2009556,32.2605155 68.8115097,32.3969522 69.43,32.4 C69.7656159,32.3959677 70.1002315,32.3625062 70.43,32.3 C70.7720737,32.2365159 71.1070352,32.139377 71.43,32.01 C71.7417198,31.883667 72.0398968,31.7262028 72.32,31.54 C72.5889706,31.3694767 72.8343994,31.1643923 73.05,30.93 Z M75.73,21.87 L77.89,21.87 L77.89,33.41 L75.73,33.41 L75.73,21.87 Z M84,21.87 L84.87,21.87 L89.74,33.43 L87.46,33.43 L86.85,32 L81.18,32 L80.59,33.41 L79.12,33.41 L84,21.87 Z M86.36,30.73 L84,25.27 L81.71,30.73 L86.36,30.73 Z M93.12,32.16 L97.66,32.16 L97.66,33.41 L90.97,33.41 L90.97,21.87 L93.12,21.87 L93.12,32.16 Z M-7.10542736e-14,0 L35.75,0 L35.75,40 L-7.10542736e-14,40 L-7.10542736e-14,0 Z M16.19,7.08 C15.6065208,7.41619872 15.1045514,7.87719102 14.72,8.43 L14.59,8.63 C14.5153642,8.75575657 14.4485703,8.88600474 14.39,9.02 C14.3003347,9.21362758 14.2267531,9.41430459 14.17,9.62 C14.0539427,10.0877161 13.9968329,10.5681104 14,11.05 C14.0075575,11.5352419 14.0850207,12.0168609 14.23,12.48 C14.3965496,13.0148329 14.6318506,13.5257723 14.93,14 C15.3290935,14.6759091 15.7734406,15.3240546 16.26,15.94 C16.81,16.65 17.5,17.5 18.32,18.5 L19.71,20.02 L19.83,19.72 C20.2099271,18.6658871 20.3896744,17.5500973 20.36,16.43 C20.363364,15.9524007 20.3399941,15.4749874 20.29,15 C19.6726315,14.3566853 19.1168713,13.6569631 18.63,12.91 C18.2696728,12.3677681 18.0592188,11.7398561 18.02,11.09 C18.02,10.98 18.02,10.87 18.02,10.76 C18.0464063,10.5418163 18.0967082,10.3271949 18.17,10.12 C18.2278525,9.97424867 18.2981104,9.8337328 18.38,9.7 L18.47,9.58 C18.6992514,9.27019834 18.9840888,9.00570645 19.31,8.8 C19.6581745,8.57754271 20.0396463,8.4121257 20.44,8.31 C20.6995851,8.24635058 20.9637072,8.20288746 21.23,8.18 L21.49,8.18 L22.49,8.18 L23.39,8.26 L23.67,8.26 C24.14,8.32 24.54,8.38 25.02,8.49 C25.5,8.6 26,8.74 26.5,8.87 C27,9 27.43,9.16 27.93,9.32 L28,7.42 L26.22,6.84 C25.71,6.68 25.19,6.53 24.66,6.4 C24.14,6.28 23.58,6.18 22.98,6.1 C22.2891603,6.02677729 21.5946779,5.99338871 20.9,6 C20.395075,6.00184692 19.8907589,6.03524534 19.39,6.1 C19.07,6.14 18.73,6.19 18.39,6.26 L17.94,6.36 C17.530218,6.46404728 17.1316399,6.60807129 16.75,6.79 C16.5573238,6.87459163 16.370273,6.97145723 16.19,7.08 Z M10.6,26.36 L13.4,26.33 C14.9989173,26.3561731 16.595683,26.2018638 18.16,25.87 C19.3371338,25.6259337 20.4724029,25.2115773 21.53,24.64 L22.04,24.33 C22.22,24.22 22.39,24.1 22.55,23.98 L23.03,23.59 C23.2898063,23.3670304 23.530635,23.1228569 23.75,22.86 C24.2885505,22.2345643 24.7270728,21.5295555 25.05,20.77 C25.1302661,20.6009915 25.2003904,20.4273505 25.26,20.25 C25.34,20.03 25.41,19.81 25.47,19.57 C25.53,19.33 25.63,19.09 25.63,18.85 C25.63,18.76 25.63,18.68 25.63,18.6 C25.7243855,17.937407 25.7744966,17.2692591 25.78,16.6 C25.778468,15.9080092 25.7350553,15.2167454 25.65,14.53 C25.5546404,13.768874 25.3631115,13.0229195 25.08,12.31 C24.770343,11.5319964 24.34192,10.8067133 23.81,10.16 C23.605376,9.90324671 23.3813876,9.66254277 23.14,9.44 C22.64,9.36 22.1,9.36 21.53,9.36 C21.2734345,9.36907826 21.0186106,9.40596066 20.77,9.47 C20.4977801,9.53942391 20.2380104,9.65075379 20,9.8 C19.8150391,9.93362275 19.6558035,10.0996344 19.53,10.29 C19.8672805,10.6006872 20.1630565,10.9536018 20.41,11.34 C20.8257384,12.0025326 21.1297886,12.7288747 21.31,13.49 C21.3882171,13.819796 21.4483071,14.1536296 21.49,14.49 C21.59,14.79 21.59,15.13 21.59,15.49 C21.59,15.79 21.59,16.1 21.59,16.42 C21.6234887,17.6939221 21.4165423,18.9627407 20.98,20.16 C20.8681987,20.4416232 20.7379151,20.7155529 20.59,20.98 C20.4918487,21.1669783 20.3816151,21.3473607 20.26,21.52 C20.1446224,21.6949523 20.0176724,21.8619918 19.88,22.02 C19.6782717,22.2637125 19.4575836,22.4910882 19.22,22.7 C18.4147527,23.3792894 17.4686139,23.871145 16.45,24.14 C15.266128,24.4555502 14.0451609,24.6102733 12.82,24.6 L10.6,24.6 L10.6,8.37 L13.36,8.37 C13.4201959,8.24135412 13.4904122,8.11763965 13.57,8 C13.8684171,7.46935831 14.2499178,6.98995042 14.7,6.58 C14.26,6.58 13.8,6.58 13.32,6.58 L6.6,6.58 L6.6,33.42 L10.6,33.42 L10.6,26.36 Z M28.49,30.36 L28.49,30.33 C28.9753293,29.3344694 29.215348,28.2372413 29.19,27.13 C29.1852342,26.4398515 29.0353207,25.7584265 28.75,25.13 C28.4361543,24.4257177 28.0507989,23.7555342 27.6,23.13 C27.15,22.53 26.69,21.93 26.15,21.31 C25.7685694,22.1729687 25.2669287,22.9776138 24.66,23.7 C24.3888644,24.021144 24.091144,24.3188644 23.77,24.59 L24.08,25 C24.3711533,25.4082518 24.6223127,25.8435947 24.83,26.3 C25.0120202,26.7023243 25.107417,27.1384239 25.11,27.58 C25.1843148,28.7903016 24.6840961,29.9648891 23.76,30.75 C22.5888365,31.5563886 21.1783572,31.9407442 19.76,31.84 C19.22592,31.8412425 18.6931245,31.7876279 18.17,31.68 C17.6409172,31.5719304 17.1197325,31.4282705 16.61,31.25 C16.1,31.08 15.6,30.88 15.1,30.66 L13.66,30 L13.42,32 C13.9952074,32.334579 14.5895635,32.6350962 15.2,32.9 C15.8017309,33.1657776 16.4237034,33.3831336 17.06,33.55 C17.7160546,33.7317827 18.3844947,33.8654707 19.06,33.95 C19.819622,34.0448602 20.5844796,34.09162 21.35,34.09 C22.3025347,34.0866415 23.2505517,33.9588945 24.17,33.71 C25.0720476,33.4642646 25.9223416,33.0577495 26.68,32.51 C27.4387312,31.9400367 28.0577122,31.2047831 28.49,30.36 Z" id="path-1"></path>
    </defs>
    <g id="Symbols" stroke="none" stroke-width="1" fill="none" fill-rule="evenodd">
        <g id="Header">
            <g id="logo">
                <g id="colors/black">
                    <mask id="mask-2" fill="white">
                        <use xlink:href="#path-1"></use>
                    </mask>
                    <use id="Mask" fill="#000000" fill-rule="nonzero" xlink:href="#path-1"></use>
                    <g mask="url(#mask-2)" fill="#000000" fill-rule="nonzero" id="Rectangle-Copy">
                        <rect x="0" y="0" width="98" height="40"></rect>
                    </g>
                </g>
            </g>
        </g>
    </g>
</svg>